<svg xmlns="http://www.w3.org/2000/svg" version="1.1" xmlns:xlink="http://www.w3.org/1999/xlink" xmlns:svgjs="http://svgjs.com/svgjs" width="1440" height="560" preserveAspectRatio="none" viewBox="0 0 1440 560"><g mask="url(&quot;#SvgjsMask1031&quot;)" fill="none"><rect width="1440" height="560" x="0" y="0" fill="url(#SvgjsLinearGradient1032)"></rect><path d="M485.45 235.3 a98.13 98.13 0 1 0 196.26 0 a98.13 98.13 0 1 0 -196.26 0z" fill="rgba(28, 83, 142, 0.4)" class="triangle-float1"></path><path d="M490.1 45.98 a132.88 132.88 0 1 0 265.76 0 a132.88 132.88 0 1 0 -265.76 0z" fill="rgba(28, 83, 142, 0.4)" class="triangle-float2"></path><path d="M479.18 391.76 a175.56 175.56 0 1 0 351.12 0 a175.56 175.56 0 1 0 -351.12 0z" fill="rgba(28, 83, 142, 0.4)" class="triangle-float2"></path><path d="M321.75 352.53 a175.13 175.13 0 1 0 350.26 0 a175.13 175.13 0 1 0 -350.26 0z" fill="rgba(28, 83, 142, 0.4)" class="triangle-float1"></path><path d="M115.86 89.11 a169.77 169.77 0 1 0 339.54 0 a169.77 169.77 0 1 0 -339.54 0z" fill="rgba(28, 83, 142, 0.4)" class="triangle-float2"></path><path d="M229.29 62.1 a179.46 179.46 0 1 0 358.92 0 a179.46 179.46 0 1 0 -358.92 0z" fill="rgba(28, 83, 142, 0.4)" class="triangle-float3"></path><path d="M595.97 232.34 a181.16 181.16 0 1 0 362.32 0 a181.16 181.16 0 1 0 -362.32 0z" fill="rgba(28, 83, 142, 0.4)" class="triangle-float1"></path><path d="M1228.76 224.54 a143.44 143.44 0 1 0 286.88 0 a143.44 143.44 0 1 0 -286.88 0z" fill="rgba(28, 83, 142, 0.4)" class="triangle-float3"></path><path d="M889.79 420.45 a115.38 115.38 0 1 0 230.76 0 a115.38 115.38 0 1 0 -230.76 0z" fill="rgba(28, 83, 142, 0.4)" class="triangle-float2"></path><path d="M835.55 152.81 a136.88 136.88 0 1 0 273.76 0 a136.88 136.88 0 1 0 -273.76 0z" fill="rgba(28, 83, 142, 0.4)" class="triangle-float1"></path><path d="M1232.15 346.84 a146.97 146.97 0 1 0 293.94 0 a146.97 146.97 0 1 0 -293.94 0z" fill="rgba(28, 83, 142, 0.4)" class="triangle-float3"></path><path d="M794.79 409.9 a112.65 112.65 0 1 0 225.3 0 a112.65 112.65 0 1 0 -225.3 0z" fill="rgba(28, 83, 142, 0.4)" class="triangle-float3"></path><path d="M395.55 218.13 a95.28 95.28 0 1 0 190.56 0 a95.28 95.28 0 1 0 -190.56 0z" fill="rgba(28, 83, 142, 0.4)" class="triangle-float3"></path></g><defs><mask id="SvgjsMask1031"><rect width="1440" height="560" fill="#ffffff"></rect></mask><linearGradient x1="15.28%" y1="-39.29%" x2="84.72%" y2="139.29%" gradientUnits="userSpaceOnUse" id="SvgjsLinearGradient1032"><stop stop-color="#0e2a47" offset="0"></stop><stop stop-color="#00459e" offset="1"></stop></linearGradient><style>
            @keyframes float1 {
                0%{transform: translate(0, 0)}
                50%{transform: translate(-10px, 0)}
                100%{transform: translate(0, 0)}
            }

            .triangle-float1 {
                animation: float1 5s infinite;
            }

            @keyframes float2 {
                0%{transform: translate(0, 0)}
                50%{transform: translate(-5px, -5px)}
                100%{transform: translate(0, 0)}
            }

            .triangle-float2 {
                animation: float2 4s infinite;
            }

            @keyframes float3 {
                0%{transform: translate(0, 0)}
                50%{transform: translate(0, -10px)}
                100%{transform: translate(0, 0)}
            }

            .triangle-float3 {
                animation: float3 6s infinite;
            }
        </style></defs></svg>